<svg width="15" height="15" fill="none" xmlns="http://www.w3.org/2000/svg">
  <path d="M10.38 7.5c-.32-.04-.63-.1-.94-.15l-2.43-.4-3.11-.52c-.62-.1-1.24-.2-1.86-.32-.07-.02-.14-.12-.17-.2l-.75-2L.06 1.05C-.04.76-.02.5.2.27a.8.8 0 0 1 .86-.23c.2.06.37.16.55.24l6.26 3.16 6.62 3.34c.43.22.62.59.47.95a.8.8 0 0 1-.34.38l-3.86 1.96-6.23 3.14-3.3 1.67c-.44.22-.87.13-1.1-.24A.72.72 0 0 1 .07 14l1.36-3.67.47-1.26c.03-.09.06-.13.16-.14l2.86-.48L7.55 8l2.43-.41.4-.05a.5.5 0 0 1 0-.04Z" fill="#000"/>
</svg>
